<svg xmlns="http://www.w3.org/2000/svg" width="90.1mm" height="23.18mm" viewBox="0 0 255.4 65.72"><defs><style>.a{fill:#fff;}</style></defs><title>partner</title><polygon class="a" points="0 25.21 0 55.61 19 55.61 20.1 50.51 6.1 50.51 6.1 42.81 17.7 42.81 18.7 37.31 6.1 37.31 6.1 30.21 19 30.21 20.1 25.21 0 25.21"/><path class="a" d="M194.2,42.3a16.66,16.66,0,0,1,3.5.7,7.42,7.42,0,0,1,1.9,1.5,5,5,0,0,1,1,1.9,7.61,7.61,0,0,1,.3,2.1V49a6.31,6.31,0,0,1-.7,3.2,6.74,6.74,0,0,1-1.9,2.2,11.73,11.73,0,0,1-3.6,1.3,16.11,16.11,0,0,1-3.9.4,25.31,25.31,0,0,1-3.8-.3,30.1,30.1,0,0,1-4.1-.9l1-4.2a29.81,29.81,0,0,0,3.6.8,17.74,17.74,0,0,0,3.2.2,14.84,14.84,0,0,0,2.3-.1,3.75,3.75,0,0,0,1.4-.5,2.28,2.28,0,0,0,.8-.9,2.48,2.48,0,0,0,.1-.9,2.77,2.77,0,0,0-.5-1.6,3,3,0,0,0-2.1-.8l-3.2-.4c-2.2-.3-4.5-.9-5.6-1.9a5.65,5.65,0,0,1-1.6-4.2V40a5.83,5.83,0,0,1,2.5-5.1,15.5,15.5,0,0,1,7.8-1.8,27.66,27.66,0,0,1,4.2.3,16,16,0,0,1,3,.8l-1,4c-1-.3-2-.4-3-.6s-2-.2-3-.2c-2,0-3.2.1-3.9.5a2,2,0,0,0-.3,3.2,4.32,4.32,0,0,0,2.2.7Z" transform="translate(0 0.01)"/><path class="a" d="M173.9,33.4a20.53,20.53,0,0,0-5.1-.5,21.21,21.21,0,0,0-5.2.6,8.5,8.5,0,0,0-3.5,1.9,8.34,8.34,0,0,0-2.2,3.3,13.37,13.37,0,0,0-.8,4.8V45c0,3.6.7,6.3,2.2,8a9.62,9.62,0,0,0,7.1,2.8c3,0,4.9-.8,6.4-2.3v1c0,2.4-.4,3.8-1.4,5s-2.8,1.7-5,1.6a32.25,32.25,0,0,1-3.7-.4,33.83,33.83,0,0,1-3.4-.8l-1,4.5a20.69,20.69,0,0,0,4.3,1,36.83,36.83,0,0,0,4.9.3c3.7.1,6.5-1,8.4-3s2.8-4.8,2.8-8.5v-19a25,25,0,0,0-4.8-1.8m-1.1,12.1a6.61,6.61,0,0,1-1.2,4.4,4.67,4.67,0,0,1-3.7,1.4,5.46,5.46,0,0,1-2.4-.4,3,3,0,0,1-1.4-1.3,5.91,5.91,0,0,1-.7-2,21.58,21.58,0,0,1-.2-2.8V43.3c0-2.3.4-3.9,1.3-4.9a5.15,5.15,0,0,1,4.1-1.5,16.35,16.35,0,0,1,2.2.2,5.36,5.36,0,0,1,1.9.7l.1,7.7Z" transform="translate(0 0.01)"/><path class="a" d="M132.8,55.6V33.4h5.4l.3,2.4a6.89,6.89,0,0,1,2.8-2.2,9.37,9.37,0,0,1,3.9-.7,12.3,12.3,0,0,1,3.5.5,6.77,6.77,0,0,1,2.5,1.4,6.14,6.14,0,0,1,1.7,2.4,9,9,0,0,1,.6,3.4v15h-5.9V42.1c0-1.8-.3-3.1-1-3.8s-1.6-1.1-3.2-1.1a4.66,4.66,0,0,0-3.7,1.9c-.8,1.1-.9,3.2-.9,5.2V55.7l-6-.1Z" transform="translate(0 0.01)"/><path class="a" d="M62.5,38.4c-.3-.1-.8-.2-1.2-.3a7.57,7.57,0,0,0-1.5-.1,5.15,5.15,0,0,0-4.1,1.5c-.8,1-1.1,2-1.1,4.1V55.7H48.2V33.4H54l.3,2.6a6.82,6.82,0,0,1,2.6-2.2,8.9,8.9,0,0,1,3.8-.7,6.62,6.62,0,0,1,1.5.1,10.26,10.26,0,0,1,1.4.4Z" transform="translate(0 0.01)"/><path class="a" d="M44.3,33.4V55.6H38.9l-.3-2.4a6.89,6.89,0,0,1-2.8,2.2,9.37,9.37,0,0,1-3.9.7,12.3,12.3,0,0,1-3.5-.5,6.77,6.77,0,0,1-2.5-1.4,6.14,6.14,0,0,1-1.7-2.4,9,9,0,0,1-.6-3.4v-15h5.9V47c0,1.8.3,3.1,1,3.8s1.6,1.1,3.2,1.1A4.66,4.66,0,0,0,37.4,50c.8-1.1.9-3.2.9-5.2V33.4Z" transform="translate(0 0.01)"/><path class="a" d="M125.7,24.5a3.67,3.67,0,0,1,2.6.8,3.42,3.42,0,0,1,0,4.4,3.68,3.68,0,0,1-2.6.7,4.15,4.15,0,0,1-2.7-.7,3.42,3.42,0,0,1,0-4.4,3.65,3.65,0,0,1,2.7-.8m-2.9,8.9h6V55.6h-6Z" transform="translate(0 0.01)"/><polygon class="a" points="110.5 47.11 113.8 33.41 119.7 33.41 113.1 55.61 107.7 55.61 103.9 42.21 100.1 55.61 94.5 55.61 87.8 33.41 94 33.41 97.3 47.21 101 34.41 106.9 34.41 110.5 47.11"/><path class="a" d="M86,39.3a8.39,8.39,0,0,0-1.7-3.4,7.93,7.93,0,0,0-3.1-2.2,16.63,16.63,0,0,0-5.4-.8,14.72,14.72,0,0,0-5.5.9A7.26,7.26,0,0,0,67.2,36a9.06,9.06,0,0,0-1.7,3.4,17.71,17.71,0,0,0-.6,4.2v1.8a14.21,14.21,0,0,0,.6,4.2A8.39,8.39,0,0,0,67.2,53a7,7,0,0,0,3.1,2.2,17.07,17.07,0,0,0,5.5.9,14.72,14.72,0,0,0,5.5-.9,7.43,7.43,0,0,0,3.1-2.3A8.22,8.22,0,0,0,86,49.5a18.49,18.49,0,0,0,.6-4.2V43.5a20.26,20.26,0,0,0-.6-4.2m-5.3,6.4a8.64,8.64,0,0,1-1.1,4.9c-.7,1-2,1.4-3.8,1.4a8,8,0,0,1-2.3-.3,3.91,3.91,0,0,1-1.6-1,4.8,4.8,0,0,1-.9-1.9,13,13,0,0,1-.3-3.1V43.2a8.64,8.64,0,0,1,1.1-4.9c.8-1,2-1.4,3.9-1.4a4.62,4.62,0,0,1,3.8,1.4,8.64,8.64,0,0,1,1.1,4.9l.1,2.5Z" transform="translate(0 0.01)"/><path class="a" d="M218.4,8.4,227.7,1,222,.1c-4.8-.7-7.3,2-10.7,4.5l-11.6,9.1h0l1.5.8.7.4h0a10,10,0,0,0,9.7-1.1l4.9-3.9,1.9-1.5Z" transform="translate(0 0.01)"/><path class="a" d="M235.5,4.6a10.16,10.16,0,0,0-7.9,1.8s-2.7,2-4.6,3.5l-4.4,3.5-.6.4h0l-9.6,7.7h0l3.1,1.6a10,10,0,0,0,9.7-1.1l9-7.2,7.3-5.7,4.3-3.4Z" transform="translate(0 0.01)"/><path class="a" d="M255.4,11l-6.7-1.2c-4-.7-5.9.6-9.8,3.6-.3.3-10,8.1-10,8.1l-.3.3h0l-3.7,3-6.8,5.5,3.1,1.6a10.56,10.56,0,0,0,10-1l9.6-7.6h0l.5-.4h0L252,14h0Z" transform="translate(0 0.01)"/></svg>