<?xml version="1.0" encoding="utf-8"?>
<!-- Generator: Adobe Illustrator 21.1.0, SVG Export Plug-In . SVG Version: 6.00 Build 0)  -->
<svg version="1.1" id="Layer_1" xmlns="http://www.w3.org/2000/svg" xmlns:xlink="http://www.w3.org/1999/xlink" x="0px" y="0px"
	 viewBox="0 0 255.4 65.8" style="enable-background:new 0 0 255.4 65.8;" xml:space="preserve">
<style type="text/css">
	.st0{fill:#FFFFFF;}
</style>
<title>logo-secret-escapes</title>
<polygon class="st0" points="0,25.2 0,55.6 19,55.6 20.1,50.5 6.1,50.5 6.1,42.8 17.7,42.8 18.7,37.3 6.1,37.3 6.1,30.2 19,30.2 
	20.1,25.2 "/>
<path class="st0" d="M194.2,42.3c1.1,0.1,2.7,0.4,3.5,0.7c0.8,0.4,1.4,1,1.9,1.5c0.5,0.6,0.8,1.2,1,1.9s0.3,1.4,0.3,2.1V49
	c0,1.3-0.2,2.3-0.7,3.2c-0.5,0.9-1.1,1.6-1.9,2.2c-0.8,0.6-2.4,1-3.6,1.3c-1.2,0.3-2.5,0.4-3.9,0.4c-1.2,0-2.5-0.1-3.8-0.3
	c-1.4-0.2-2.7-0.5-4.1-0.9l1-4.2c1.3,0.4,2.5,0.6,3.6,0.8s2.2,0.2,3.2,0.2c1,0,1.7,0,2.3-0.1c0.6-0.1,1.1-0.3,1.4-0.5
	c0.3-0.2,0.7-0.6,0.8-0.9c0.1-0.3,0.1-0.5,0.1-0.9c0-0.7-0.2-1.1-0.5-1.6c-0.3-0.4-1-0.7-2.1-0.8l-3.2-0.4c-2.2-0.3-4.5-0.9-5.6-1.9
	c-1.1-1.1-1.6-2.5-1.6-4.2v-0.4c0-2.2,0.8-3.9,2.5-5.1c1.7-1.1,4.7-1.8,7.8-1.8c1.5,0,2.9,0.1,4.2,0.3c1.2,0.2,2.2,0.5,3,0.8l-1,4
	c-1-0.3-2-0.4-3-0.6c-1-0.1-2-0.2-3-0.2c-2,0-3.2,0.1-3.9,0.5c-0.7,0.4-1,0.8-1,1.7c0,0.8,0.3,1.2,0.7,1.5c0.4,0.3,1.1,0.6,2.2,0.7
	L194.2,42.3z"/>
<path class="st0" d="M173.9,33.4c-1.6-0.4-3.2-0.5-5.1-0.5c-1.7,0-3.8,0.2-5.2,0.6c-1.4,0.4-2.5,1-3.5,1.9c-1,0.9-1.7,2-2.2,3.3
	c-0.5,1.3-0.8,2.9-0.8,4.8V45c0,3.6,0.7,6.3,2.2,8c1.5,1.7,4.2,2.8,7.1,2.8c3,0,4.9-0.8,6.4-2.3v1c0,2.4-0.4,3.8-1.4,5
	c-1,1.2-2.8,1.7-5,1.6c-1.6-0.1-2.5-0.2-3.7-0.4c-1.2-0.2-2.3-0.5-3.4-0.8l-1,4.5c1.4,0.5,2.8,0.8,4.3,1s3.1,0.3,4.9,0.3
	c3.7,0.1,6.5-1,8.4-3c1.9-2,2.8-4.8,2.8-8.5V35.2C177.3,34.5,175.5,33.8,173.9,33.4 M172.8,45.5c0,2-0.4,3.5-1.2,4.4
	c-0.8,0.9-2,1.4-3.7,1.4c-1,0-1.8-0.1-2.4-0.4c-0.6-0.3-1.1-0.7-1.4-1.3c-0.3-0.6-0.6-1.2-0.7-2c-0.1-0.8-0.2-1.7-0.2-2.8v-1.5
	c0-2.3,0.4-3.9,1.3-4.9c0.9-1,2.2-1.5,4.1-1.5c0.7,0,1.5,0.1,2.2,0.2c0.7,0.1,1.4,0.4,1.9,0.7L172.8,45.5L172.8,45.5z"/>
<path class="st0" d="M132.8,55.6V33.4h5.4l0.3,2.4c0.7-0.9,1.6-1.7,2.8-2.2c1.1-0.5,2.4-0.7,3.9-0.7c1.2,0,2.6,0.2,3.5,0.5
	c1,0.3,1.8,0.8,2.5,1.4c0.7,0.6,1.3,1.4,1.7,2.4c0.4,1,0.6,2.1,0.6,3.4v15h-5.9V42.1c0-1.8-0.3-3.1-1-3.8c-0.7-0.8-1.6-1.1-3.2-1.1
	c-1.7,0-2.9,0.9-3.7,1.9c-0.8,1.1-0.9,3.2-0.9,5.2v11.4L132.8,55.6L132.8,55.6z"/>
<path class="st0" d="M62.5,38.4c-0.3-0.1-0.8-0.2-1.2-0.3c-0.5-0.1-1-0.1-1.5-0.1c-1.9,0-3.2,0.5-4.1,1.5c-0.8,1-1.1,2-1.1,4.1v12.1
	h-6.4V33.4H54l0.3,2.6c0.7-1,1.6-1.7,2.6-2.2c1.1-0.5,2.3-0.7,3.8-0.7c0.6,0,1.1,0,1.5,0.1c0.4,0.1,0.9,0.2,1.4,0.4L62.5,38.4z"/>
<path class="st0" d="M44.3,33.4v22.2h-5.4l-0.3-2.4c-0.7,0.9-1.6,1.7-2.8,2.2c-1.1,0.5-2.4,0.7-3.9,0.7c-1.2,0-2.6-0.2-3.5-0.5
	c-1-0.3-1.8-0.8-2.5-1.4c-0.7-0.6-1.3-1.4-1.7-2.4c-0.4-1-0.6-2.1-0.6-3.4v-15h5.9V47c0,1.8,0.3,3.1,1,3.8c0.7,0.8,1.6,1.1,3.2,1.1
	c1.7,0,2.9-0.9,3.7-1.9c0.8-1.1,0.9-3.2,0.9-5.2V33.4H44.3z"/>
<path class="st0" d="M125.7,24.5c1.2,0,2.1,0.3,2.6,0.8c0.5,0.5,0.8,1.3,0.8,2.2c0,0.9-0.3,1.7-0.8,2.2c-0.5,0.5-1.4,0.7-2.6,0.7
	c-1.2,0-2.1-0.2-2.7-0.7c-0.5-0.5-0.8-1.3-0.8-2.2s0.3-1.7,0.8-2.2C123.6,24.7,124.5,24.5,125.7,24.5 M122.8,33.4h6v22.2h-6V33.4z"
	/>
<polygon class="st0" points="110.5,47.1 113.8,33.4 119.7,33.4 113.1,55.6 107.7,55.6 103.9,42.2 100.1,55.6 94.5,55.6 87.8,33.4 
	94,33.4 97.3,47.2 101,34.4 106.9,34.4 "/>
<path class="st0" d="M86,39.3c-0.3-1.3-0.9-2.4-1.7-3.4c-0.8-0.9-1.8-1.7-3.1-2.2c-1.3-0.5-3.4-0.8-5.4-0.8s-4.2,0.3-5.5,0.9
	c-1.3,0.5-2.4,1.3-3.1,2.2c-0.8,0.9-1.3,2.1-1.7,3.4c-0.3,1.3-0.6,2.6-0.6,4.2v1.8c0,1.5,0.2,2.9,0.6,4.2c0.3,1.3,0.9,2.4,1.7,3.4
	c0.8,1,1.8,1.7,3.1,2.2s3.5,0.9,5.5,0.9c2,0,4.2-0.3,5.5-0.9c1.3-0.6,2.4-1.3,3.1-2.3c0.8-1,1.3-2.1,1.6-3.4
	c0.3-1.3,0.6-2.7,0.6-4.2v-1.8C86.6,42.1,86.3,40.7,86,39.3 M80.7,45.7c0,2.3-0.4,3.9-1.1,4.9c-0.7,1-2,1.4-3.8,1.4
	c-0.9,0-1.6-0.1-2.3-0.3c-0.6-0.2-1.1-0.5-1.6-1c-0.4-0.5-0.7-1.1-0.9-1.9c-0.2-0.8-0.3-1.8-0.3-3.1v-2.5c0-2.3,0.4-3.9,1.1-4.9
	c0.8-1,2-1.4,3.9-1.4c1.8,0,3.1,0.5,3.8,1.4c0.7,1,1.1,2.6,1.1,4.9L80.7,45.7L80.7,45.7z"/>
<path class="st0" d="M218.4,8.4l9.3-7.4L222,0.1c-4.8-0.7-7.3,2-10.7,4.5l-11.6,9.1l0,0l1.5,0.8l0.7,0.4c0,0,0,0,0,0
	c2.9,1.4,6.9,0.9,9.7-1.1l4.9-3.9L218.4,8.4L218.4,8.4L218.4,8.4z"/>
<path class="st0" d="M235.5,4.6c0,0-4.3-1-7.9,1.8c0,0-2.7,2-4.6,3.5l-4.4,3.5l-0.6,0.4l0,0l-9.6,7.7l0,0l0,0l3.1,1.6
	c2.9,1.4,6.9,0.9,9.7-1.1l9-7.2l7.3-5.7l4.3-3.4L235.5,4.6z"/>
<path class="st0" d="M255.4,11l-6.7-1.2c-4-0.7-5.9,0.6-9.8,3.6c-0.3,0.3-10,8.1-10,8.1l-0.3,0.3l0,0l-3.7,3l-6.8,5.5l3.1,1.6
	c2.9,1.4,7.2,1,10-1l9.6-7.6l0,0l0,0l0.5-0.4l0,0l10.7-8.9l0,0L255.4,11z"/>
</svg>
