<?xml version="1.0" encoding="utf-8"?>
<!-- Generator: Adobe Illustrator 21.1.0, SVG Export Plug-In . SVG Version: 6.00 Build 0)  -->
<svg version="1.1" id="Layer_1" xmlns="http://www.w3.org/2000/svg" xmlns:xlink="http://www.w3.org/1999/xlink" x="0px" y="0px"
	 viewBox="0 0 936.2 127.3" style="enable-background:new 0 0 936.2 127.3;" xml:space="preserve">
<style type="text/css">
	.st0{fill:#FFFFFF;}
</style>
<g>
	<rect x="68.8" y="90.6" class="st0" width="37" height="5.9"/>
	<polygon class="st0" points="59,1.9 53.5,4.3 89.5,88.9 105.7,88.9 105.7,82.9 93.4,82.9 	"/>
	<polygon class="st0" points="32.5,69.2 73,69.2 78.8,82.9 68.8,82.9 68.8,88.9 87.7,88.9 76.9,63.4 28.7,63.4 17.9,88.9 37,88.9 
		37,82.9 26.8,82.9 	"/>
	<polygon class="st0" points="52.1,4.3 46.7,1.9 12.2,82.9 0,82.9 0,88.9 16.1,88.9 	"/>
	<rect y="90.6" class="st0" width="37" height="5.9"/>
	<path class="st0" d="M76.2,61.7L52.8,6.6L29.4,61.7H76.2z M67.3,55.8h-29l14.5-34.2L67.3,55.8z"/>
	<path class="st0" d="M116.7,74.2c0,13.3,7.6,16,12.2,16c3.2,0,6.2-1.1,9.5-4l-4-4.4c-2,1.9-3.6,2.4-5.5,2.4c-2.9,0-6.4-1.7-6.4-10
		V0H97.5v5.9h19.2V74.2z"/>
	<path class="st0" d="M139.6,87.4c-3.5,3.2-7.3,4.4-10.7,4.4c-4.9,0-13.9-3.1-13.9-17.6V7.6H97.5v6H109v60.6
		c0,19.4,13.3,23.5,19.9,23.5c4.4,0,10.3-2,14.8-6L139.6,87.4z"/>
	<path class="st0" d="M182.7,90.1c14.6,0,26.4-11.8,26.4-26.5c0-14.6-11.8-26.4-26.4-26.4c-14.8,0-26.5,11.8-26.5,26.4
		C156.2,78.4,167.9,90.1,182.7,90.1z M182.7,43.1c11.3,0,20.5,9.2,20.5,20.5c0,11.4-9.2,20.5-20.5,20.5c-11.4,0-20.5-9.1-20.5-20.5
		C162.2,52.3,171.3,43.1,182.7,43.1z"/>
	<rect x="136.9" y="121.4" class="st0" width="36.7" height="5.9"/>
	<path class="st0" d="M182.7,29.5c-7.8,0-15,2.6-20.8,7.1v-5.8h-25.1v5.9h19.2v17.8c3.8-10.9,14.4-19,26.6-19
		c15.4,0,28.1,12.7,28.1,28.1c0,15.5-12.7,28.2-28.1,28.2c-12.2,0-22.8-7.9-26.6-19v46.9h17.5v-6h-11.6V90.6
		c5.8,4.4,13,7.1,20.8,7.1c18.7,0,34.1-15.2,34.1-34.1C216.8,44.9,201.4,29.5,182.7,29.5z"/>
	<polygon class="st0" points="148.4,113.8 136.9,113.8 136.9,119.8 154.4,119.8 154.4,38.4 136.9,38.4 136.9,44.3 148.4,44.3 	"/>
	<path class="st0" d="M236.4,14.5c1.9,0,3.4-1.6,3.4-3.5c0-1.9-1.4-3.5-3.4-3.5c-2,0-3.5,1.6-3.5,3.5
		C232.9,13,234.4,14.5,236.4,14.5z"/>
	<polygon class="st0" points="236.6,38.4 219.1,38.4 219.1,44.3 230.8,44.3 230.8,82.9 219.1,82.9 219.1,88.9 236.6,88.9 	"/>
	<rect x="219.1" y="90.6" class="st0" width="36.7" height="5.9"/>
	<path class="st0" d="M236.4,21.8c5.9,0,10.8-4.9,10.8-10.8s-4.9-10.8-10.8-10.8c-6,0-10.9,4.9-10.9,10.8S230.4,21.8,236.4,21.8z
		 M236.4,5.9c2.8,0,5,2.4,5,5.2s-2.3,5.2-5,5.2c-2.9,0-5.2-2.4-5.2-5.2S233.5,5.9,236.4,5.9z"/>
	<polygon class="st0" points="244.2,30.8 219.1,30.8 219.1,36.7 238.3,36.7 238.3,88.9 255.8,88.9 255.8,82.9 244.2,82.9 	"/>
	<polygon class="st0" points="275.7,38.4 258.1,38.4 258.1,44.3 269.8,44.3 269.8,82.9 258.1,82.9 258.1,88.9 275.7,88.9 	"/>
	<path class="st0" d="M319.5,58c0-16.3-9.2-20.8-17.8-20.8c-9.1,0-17.9,5.5-24.4,13.8v37.9h17.5v-6h-11.5V53c5.2-6.2,12-10,18.4-10
		c6.4,0,11.9,3.1,11.9,14.9v38.5h25.1v-5.9h-19.2V58z"/>
	<rect x="258.1" y="90.6" class="st0" width="36.7" height="5.9"/>
	<path class="st0" d="M327.1,58c0-21.6-14.4-28.4-25.4-28.4c-6.5,0-12.7,2.2-18.4,5.8v-4.4h-25.2v5.9h19.2v11.5
		c6.6-7.6,15.5-12.7,24.4-12.7c9,0,19.4,5.2,19.4,22.4v31h17.5v-6h-11.5V58z"/>
	<path class="st0" d="M371.7,37.2c-16,0-26,12-26.5,25.6h50C397.3,50.4,388.1,37.2,371.7,37.2z M352.2,56.9
		c2.5-7.9,9.6-13.8,19.6-13.8c10.1,0,16.6,6.5,17.6,13.8H352.2z"/>
	<path class="st0" d="M371.7,29.5c-20.8,0-34.1,16.4-34.1,34.2c0,18.6,14.4,34,35.4,34c9.7,0,19.8-3.8,27.4-10.1l-3.8-4.4
		c-6.8,5.4-14.9,8.6-23.5,8.6c-17.5,0-29.5-12.7-29.5-28.1c0-14.6,11.2-28.2,28.2-28.2c18.2,0,28.1,15.1,25,28.9h-51.5
		c0.4,14.3,11.3,25.7,27.8,25.7c8.4,0,15.8-3,22.6-8.2l-3.7-4.7c-5.6,4.6-11.8,6.8-18.8,6.8c-10.6,0-18.1-5.6-20.8-13.7h48.6
		C408.6,52.1,396.2,29.5,371.7,29.5z"/>
	<polygon class="st0" points="508.2,29.8 514.1,29.8 514.1,2.9 438.3,2.9 438.3,8.8 508.2,8.8 	"/>
	<polygon class="st0" points="457.7,88.9 507.2,88.9 507.2,69.6 501.3,69.6 501.3,82.9 463.5,82.9 463.5,55.6 496.3,55.6 
		496.3,49.7 457.7,49.7 	"/>
	<polygon class="st0" points="456,10.4 438.3,10.4 438.3,16.4 450.1,16.4 450.1,82.9 438.3,82.9 438.3,88.9 456,88.9 	"/>
	<polygon class="st0" points="506.5,29.8 506.5,10.4 457.7,10.4 457.7,48 496.3,48 496.3,42.1 463.5,42.1 463.5,16.4 500.6,16.4 
		500.6,29.8 	"/>
	<path class="st0" d="M576.7,73.9c0-13.2-15.7-23.3-21.6-30.7l-20.6,35.4c10.1,7.8,18.1,11.5,25.6,11.5
		C570.6,90.1,576.7,82.4,576.7,73.9z M556.2,53c6.6,6.5,14.6,13.3,14.6,20.9c0,5.5-3.8,10.2-10.8,10.2c-5,0-10.7-2.2-17.9-7.2
		L556.2,53z"/>
	<path class="st0" d="M561.1,38.5c-3.4-4.1-3.2-7.2,1.1-11.4l-4.1-4.2c-6.6,6.4-6.8,13-1.7,19.3c5.8,7.2,22,17.5,22,31.7
		c0,9.2-6.8,17.9-18.4,17.9c-7.8,0-16.4-3.8-26.4-11.8l-6.2,10.6h-12.6v-1.7h11.6L554,41.8c-4.4-6.5-3.7-13.7,2.9-20l-4.2-4.2
		c-7.7,7.4-9.2,16.1-5.5,24.1L523,82.9h-8.2V69.6h-5.9v21h-70.6v5.9h75.7h0.7h15.8l4.7-7.9c8.8,5.9,17.3,9.1,24.7,9.1
		c15.2,0,24.2-11.8,24.2-23.8C584.2,56.8,566,44.8,561.1,38.5z"/>
	<rect x="643.7" y="31.6" class="st0" width="5.9" height="30.5"/>
	<path class="st0" d="M642,62V50.2c-2-7.9-10.9-13-20.5-13C606.7,37.2,595,49,595,63.6c0,14.8,10.9,26.5,27.6,26.5
		c8.3,0,16-3,22.3-8.3l-3.7-4.6c-5.5,4.6-11.6,6.8-18.6,6.8c-13.2,0-21.6-9-21.6-20.5c0-11.3,9.1-20.5,20.5-20.5
		c6.8,0,13,3.6,14.5,7.9v11H642z"/>
	<path class="st0" d="M622.6,91.8c-17.4,0-29.3-12.7-29.3-28.2c0-15.4,12.7-28.1,28.2-28.1c8.4,0,16.7,4,20.5,10.3V31.6h-6V33
		c-4.4-2.3-9.6-3.5-14.5-3.5c-18.8,0-34.1,15.4-34.1,34.1c0,18.7,14.2,34.1,35.2,34.1c9.7,0,19.9-3.8,27.2-10.1L646,83
		C639.5,88.6,631.1,91.8,622.6,91.8z"/>
	<path class="st0" d="M685,35.6c11.2,0,21.4,4,21.4,16.2v37.1h17.5v-6h-11.6V51.8c0-16.8-14.4-22.1-27.2-22.1
		c-9,0-19.3,2.4-26.4,4.8l2,5.5C667.4,37.8,676.6,35.6,685,35.6z"/>
	<path class="st0" d="M661.5,74.4c0,9.4,7.7,15.7,19.3,15.7c8.8,0,17.4-3.6,23.9-8.8V62.5c-9.6-2.9-17-4.2-22.8-4.2
		C666.7,58.3,661.5,66.6,661.5,74.4z M698.7,78.5c-5.3,3.6-11.5,5.6-17.9,5.6c-8.5,0-13.3-4.1-13.3-9.7c0-5.2,3.4-10.1,14.4-10.1
		c4.4,0,9.8,0.7,16.8,2.5V78.5z"/>
	<path class="st0" d="M723.9,96.5v-5.9h-19.2v-7.2c-6.5,5-15.4,8.4-23.9,8.4c-12.2,0-21-7.3-21-17.4c0-8.3,5.9-17.8,22.1-17.8
		c5.8,0,13.4,1.2,22.8,4v-8.8c0-11-8.9-14.5-19.7-14.5c-8.2,0-17.2,2.2-23.9,4.4l2,5.6c6.4-2.2,14.4-4.2,21.8-4.1
		c9,0,13.7,2.2,13.7,8.5v1.1c-6.6-1.4-12.2-2.2-16.8-2.2c-20.5,0-28,12.8-28,23.6c0,13.9,11.6,23.3,26.9,23.3c5.9,0,12.2-1.4,17.9-4
		v2.8H723.9z"/>
	<polygon class="st0" points="732.1,113.8 720.6,113.8 720.6,119.8 738.1,119.8 738.1,38.4 720.6,38.4 720.6,44.3 732.1,44.3 	"/>
	<path class="st0" d="M766.4,90.1c14.6,0,26.4-11.8,26.4-26.5c0-14.6-11.8-26.4-26.4-26.4c-14.8,0-26.5,11.8-26.5,26.4
		C739.9,78.4,751.7,90.1,766.4,90.1z M766.4,43.1c11.3,0,20.5,9.2,20.5,20.5c0,11.4-9.2,20.5-20.5,20.5c-11.4,0-20.5-9.1-20.5-20.5
		C745.9,52.3,755,43.1,766.4,43.1z"/>
	<rect x="720.6" y="121.4" class="st0" width="36.7" height="5.9"/>
	<path class="st0" d="M766.4,29.5c-7.8,0-15,2.6-20.8,7.1v-5.8h-25.1v5.9h19.2v17.8c3.8-10.9,14.4-19,26.6-19
		c15.4,0,28.1,12.7,28.1,28.1c0,15.5-12.7,28.2-28.1,28.2c-12.2,0-22.8-7.9-26.6-19v46.9h17.5v-6h-11.6V90.6
		c5.8,4.4,13,7.1,20.8,7.1c18.7,0,34.1-15.2,34.1-34.1C800.5,44.9,785.2,29.5,766.4,29.5z"/>
	<path class="st0" d="M837.8,29.5c-20.8,0-34.1,16.4-34.1,34.2c0,18.6,14.4,34,35.4,34c9.7,0,19.8-3.8,27.4-10.1l-3.8-4.4
		c-6.8,5.4-14.9,8.6-23.5,8.6c-17.5,0-29.5-12.7-29.5-28.1c0-14.6,11.2-28.2,28.2-28.2c18.2,0,28.1,15.1,25,28.9h-51.5
		c0.4,14.3,11.3,25.7,27.8,25.7c8.4,0,15.8-3,22.6-8.2l-3.7-4.7c-5.6,4.6-11.8,6.8-18.8,6.8c-10.6,0-18.1-5.6-20.8-13.7h48.6
		C874.6,52.1,862.2,29.5,837.8,29.5z"/>
	<path class="st0" d="M837.8,37.2c-16,0-26,12-26.5,25.6h50C863.3,50.4,854.1,37.2,837.8,37.2z M818.2,56.9
		c2.5-7.9,9.6-13.8,19.6-13.8c10.1,0,16.6,6.5,17.6,13.8H818.2z"/>
	<path class="st0" d="M866.9,82.9v6h11.4l27.6-47.2c-4.4-6.5-3.7-13.7,2.9-20l-4.2-4.2c-7.7,7.4-9.2,16.1-5.5,24.1L875,82.9H866.9z"
		/>
	<path class="st0" d="M913,38.5c-3.4-4.1-3.2-7.2,1.1-11.4l-4.1-4.2c-6.6,6.4-6.8,13-1.7,19.3c5.8,7.2,22,17.5,22,31.7
		c0,9.2-6.8,17.9-18.4,17.9c-7.8,0-16.4-3.8-26.4-11.8l-6.2,10.6h-12.4v5.9h15.6l4.7-7.9c8.8,5.9,17.3,9.1,24.7,9.1
		c15.2,0,24.2-11.8,24.2-23.8C936.2,56.8,917.9,44.8,913,38.5z"/>
	<path class="st0" d="M928.6,73.9c0-13.2-15.7-23.3-21.6-30.7l-20.6,35.4c10.1,7.8,18.1,11.5,25.6,11.5
		C922.5,90.1,928.6,82.4,928.6,73.9z M908.1,53c6.6,6.5,14.6,13.3,14.6,20.9c0,5.5-3.8,10.2-10.8,10.2c-5,0-10.7-2.2-17.9-7.2
		L908.1,53z"/>
</g>
</svg>
