<?xml version="1.0" encoding="utf-8"?>
<!-- Generator: Adobe Illustrator 21.1.0, SVG Export Plug-In . SVG Version: 6.00 Build 0)  -->
<svg version="1.1" id="Layer_1" xmlns="http://www.w3.org/2000/svg" xmlns:xlink="http://www.w3.org/1999/xlink" x="0px" y="0px"
	 viewBox="0 0 497.8 249.2" style="enable-background:new 0 0 497.8 249.2;" xml:space="preserve">
<style type="text/css">
	.st0{fill:#FFFFFF;}
</style>
<g>
	<rect x="116.1" y="90.6" class="st0" width="37" height="5.9"/>
	<polygon class="st0" points="106.3,1.9 100.8,4.3 136.8,88.9 153,88.9 153,82.9 140.7,82.9 	"/>
	<polygon class="st0" points="79.8,69.2 120.3,69.2 126.1,82.9 116.1,82.9 116.1,88.9 135,88.9 124.2,63.4 76,63.4 65.2,88.9 
		84.3,88.9 84.3,82.9 74.1,82.9 	"/>
	<polygon class="st0" points="99.4,4.3 94,1.9 59.5,82.9 47.3,82.9 47.3,88.9 63.4,88.9 	"/>
	<rect x="47.3" y="90.6" class="st0" width="37" height="5.9"/>
	<path class="st0" d="M123.5,61.7L100.1,6.6L76.7,61.7H123.5z M114.6,55.8h-29l14.5-34.2L114.6,55.8z"/>
	<path class="st0" d="M164,74.2c0,13.3,7.6,16,12.2,16c3.2,0,6.2-1.1,9.5-4l-4-4.4c-2,1.9-3.6,2.4-5.5,2.4c-2.9,0-6.4-1.7-6.4-10V0
		h-25v5.9H164V74.2z"/>
	<path class="st0" d="M186.9,87.4c-3.5,3.2-7.3,4.4-10.7,4.4c-4.9,0-13.9-3.1-13.9-17.6V7.6h-17.5v6h11.5v60.6
		c0,19.4,13.3,23.5,19.9,23.5c4.4,0,10.3-2,14.8-6L186.9,87.4z"/>
	<path class="st0" d="M230,90.1c14.6,0,26.4-11.8,26.4-26.5c0-14.6-11.8-26.4-26.4-26.4c-14.8,0-26.5,11.8-26.5,26.4
		C203.5,78.4,215.2,90.1,230,90.1z M230,43.1c11.3,0,20.5,9.2,20.5,20.5c0,11.4-9.2,20.5-20.5,20.5c-11.4,0-20.5-9.1-20.5-20.5
		C209.5,52.3,218.6,43.1,230,43.1z"/>
	<rect x="184.2" y="121.4" class="st0" width="36.7" height="5.9"/>
	<path class="st0" d="M230,29.5c-7.8,0-15,2.6-20.8,7.1v-5.8h-25.1v5.9h19.2v17.8c3.8-10.9,14.4-19,26.6-19
		c15.4,0,28.1,12.7,28.1,28.1c0,15.5-12.7,28.2-28.1,28.2c-12.2,0-22.8-7.9-26.6-19v46.9h17.5v-6h-11.6V90.6
		c5.8,4.4,13,7.1,20.8,7.1c18.7,0,34.1-15.2,34.1-34.1C264.1,44.9,248.7,29.5,230,29.5z"/>
	<polygon class="st0" points="195.7,113.8 184.2,113.8 184.2,119.8 201.7,119.8 201.7,38.4 184.2,38.4 184.2,44.3 195.7,44.3 	"/>
	<path class="st0" d="M283.7,14.5c1.9,0,3.4-1.6,3.4-3.5s-1.4-3.5-3.4-3.5s-3.5,1.6-3.5,3.5C280.2,13,281.7,14.5,283.7,14.5z"/>
	<polygon class="st0" points="283.9,38.4 266.4,38.4 266.4,44.3 278.1,44.3 278.1,82.9 266.4,82.9 266.4,88.9 283.9,88.9 	"/>
	<rect x="266.4" y="90.6" class="st0" width="36.7" height="5.9"/>
	<path class="st0" d="M283.7,21.8c5.9,0,10.8-4.9,10.8-10.8s-4.9-10.8-10.8-10.8c-6,0-10.9,4.9-10.9,10.8S277.7,21.8,283.7,21.8z
		 M283.7,5.9c2.8,0,5,2.4,5,5.2s-2.3,5.2-5,5.2c-2.9,0-5.2-2.4-5.2-5.2S280.8,5.9,283.7,5.9z"/>
	<polygon class="st0" points="291.5,30.8 266.4,30.8 266.4,36.7 285.6,36.7 285.6,88.9 303.1,88.9 303.1,82.9 291.5,82.9 	"/>
	<polygon class="st0" points="323,38.4 305.4,38.4 305.4,44.3 317.1,44.3 317.1,82.9 305.4,82.9 305.4,88.9 323,88.9 	"/>
	<path class="st0" d="M366.8,58c0-16.3-9.2-20.8-17.8-20.8c-9.1,0-17.9,5.5-24.4,13.8v37.9h17.5v-6h-11.5V53c5.2-6.2,12-10,18.4-10
		s11.9,3.1,11.9,14.9v38.5H386v-5.9h-19.2V58z"/>
	<rect x="305.4" y="90.6" class="st0" width="36.7" height="5.9"/>
	<path class="st0" d="M374.4,58c0-21.6-14.4-28.4-25.4-28.4c-6.5,0-12.7,2.2-18.4,5.8V31h-25.2v5.9h19.2v11.5
		c6.6-7.6,15.5-12.7,24.4-12.7c9,0,19.4,5.2,19.4,22.4v31h17.5v-6h-11.5V58z"/>
	<path class="st0" d="M419,37.2c-16,0-26,12-26.5,25.6h50C444.6,50.4,435.4,37.2,419,37.2z M399.5,56.9c2.5-7.9,9.6-13.8,19.6-13.8
		c10.1,0,16.6,6.5,17.6,13.8H399.5z"/>
	<path class="st0" d="M419,29.5c-20.8,0-34.1,16.4-34.1,34.2c0,18.6,14.4,34,35.4,34c9.7,0,19.8-3.8,27.4-10.1l-3.8-4.4
		c-6.8,5.4-14.9,8.6-23.5,8.6c-17.5,0-29.5-12.7-29.5-28.1c0-14.6,11.2-28.2,28.2-28.2c18.2,0,28.1,15.1,25,28.9h-51.5
		c0.4,14.3,11.3,25.7,27.8,25.7c8.4,0,15.8-3,22.6-8.2l-3.7-4.7c-5.6,4.6-11.8,6.8-18.8,6.8c-10.6,0-18.1-5.6-20.8-13.7h48.6
		C455.9,52.1,443.5,29.5,419,29.5z"/>
</g>
<g>
	<polygon class="st0" points="69.9,151.7 75.8,151.7 75.8,124.8 0,124.8 0,130.7 69.9,130.7 	"/>
	<polygon class="st0" points="19.4,210.8 68.9,210.8 68.9,191.5 63,191.5 63,204.8 25.2,204.8 25.2,177.5 58,177.5 58,171.6 
		19.4,171.6 	"/>
	<polygon class="st0" points="17.7,132.3 0,132.3 0,138.3 11.8,138.3 11.8,204.8 0,204.8 0,210.8 17.7,210.8 	"/>
	<polygon class="st0" points="68.2,151.7 68.2,132.3 19.4,132.3 19.4,169.9 58,169.9 58,164 25.2,164 25.2,138.3 62.3,138.3 
		62.3,151.7 	"/>
	<path class="st0" d="M138.4,195.8c0-13.2-15.7-23.3-21.6-30.7l-20.6,35.4c10.1,7.8,18.1,11.5,25.6,11.5
		C132.3,212,138.4,204.3,138.4,195.8z M117.9,174.9c6.6,6.5,14.6,13.3,14.6,20.9c0,5.5-3.8,10.2-10.8,10.2c-5,0-10.7-2.2-17.9-7.2
		L117.9,174.9z"/>
	<path class="st0" d="M122.8,160.4c-3.4-4.1-3.2-7.2,1.1-11.4l-4.1-4.2c-6.6,6.4-6.8,13-1.7,19.3c5.8,7.2,22,17.5,22,31.7
		c0,9.2-6.8,17.9-18.4,17.9c-7.8,0-16.4-3.8-26.4-11.8l-6.2,10.6H76.5v-1.7h11.6l27.6-47.1c-4.4-6.5-3.7-13.7,2.9-20l-4.2-4.2
		c-7.7,7.4-9.2,16.1-5.5,24.1l-24.2,41.2h-8.2v-13.3h-5.9v21H0v5.9h75.7h0.7h15.8l4.7-7.9c8.8,5.9,17.3,9.1,24.7,9.1
		c15.2,0,24.2-11.8,24.2-23.8C145.9,178.7,127.7,166.7,122.8,160.4z"/>
	<rect x="205.4" y="153.5" class="st0" width="5.9" height="30.5"/>
	<path class="st0" d="M203.7,183.9v-11.8c-2-7.9-10.9-13-20.5-13c-14.8,0-26.5,11.8-26.5,26.4c0,14.8,10.9,26.5,27.6,26.5
		c8.3,0,16-3,22.3-8.3l-3.7-4.6c-5.5,4.6-11.6,6.8-18.6,6.8c-13.2,0-21.6-9-21.6-20.5c0-11.3,9.1-20.5,20.5-20.5
		c6.8,0,13,3.6,14.5,7.9v11L203.7,183.9L203.7,183.9z"/>
	<path class="st0" d="M184.3,213.7c-17.4,0-29.3-12.7-29.3-28.2c0-15.4,12.7-28.1,28.2-28.1c8.4,0,16.7,4,20.5,10.3v-14.2h-6v1.4
		c-4.4-2.3-9.6-3.5-14.5-3.5c-18.8,0-34.1,15.4-34.1,34.1s14.2,34.1,35.2,34.1c9.7,0,19.9-3.8,27.2-10.1l-3.8-4.6
		C201.2,210.5,192.8,213.7,184.3,213.7z"/>
	<path class="st0" d="M246.7,157.5c11.2,0,21.4,4,21.4,16.2v37.1h17.5v-6H274v-31.1c0-16.8-14.4-22.1-27.2-22.1
		c-9,0-19.3,2.4-26.4,4.8l2,5.5C229.1,159.7,238.3,157.5,246.7,157.5z"/>
	<path class="st0" d="M223.2,196.3c0,9.4,7.7,15.7,19.3,15.7c8.8,0,17.4-3.6,23.9-8.8v-18.8c-9.6-2.9-17-4.2-22.8-4.2
		C228.4,180.2,223.2,188.5,223.2,196.3z M260.4,200.4c-5.3,3.6-11.5,5.6-17.9,5.6c-8.5,0-13.3-4.1-13.3-9.7
		c0-5.2,3.4-10.1,14.4-10.1c4.4,0,9.8,0.7,16.8,2.5V200.4z"/>
	<path class="st0" d="M285.6,218.4v-5.9h-19.2v-7.2c-6.5,5-15.4,8.4-23.9,8.4c-12.2,0-21-7.3-21-17.4c0-8.3,5.9-17.8,22.1-17.8
		c5.8,0,13.4,1.2,22.8,4v-8.8c0-11-8.9-14.5-19.7-14.5c-8.2,0-17.2,2.2-23.9,4.4l2,5.6c6.4-2.2,14.4-4.2,21.8-4.1
		c9,0,13.7,2.2,13.7,8.5v1.1c-6.6-1.4-12.2-2.2-16.8-2.2c-20.5,0-28,12.8-28,23.6c0,13.9,11.6,23.3,26.9,23.3c5.9,0,12.2-1.4,17.9-4
		v2.8h25.3V218.4z"/>
	<polygon class="st0" points="293.8,235.7 282.3,235.7 282.3,241.7 299.8,241.7 299.8,160.3 282.3,160.3 282.3,166.2 293.8,166.2 	
		"/>
	<path class="st0" d="M328.1,212c14.6,0,26.4-11.8,26.4-26.5c0-14.6-11.8-26.4-26.4-26.4c-14.8,0-26.5,11.8-26.5,26.4
		C301.6,200.3,313.4,212,328.1,212z M328.1,165c11.3,0,20.5,9.2,20.5,20.5c0,11.4-9.2,20.5-20.5,20.5c-11.4,0-20.5-9.1-20.5-20.5
		C307.6,174.2,316.7,165,328.1,165z"/>
	<rect x="282.3" y="243.3" class="st0" width="36.7" height="5.9"/>
	<path class="st0" d="M328.1,151.4c-7.8,0-15,2.6-20.8,7.1v-5.8h-25.1v5.9h19.2v17.8c3.8-10.9,14.4-19,26.6-19
		c15.4,0,28.1,12.7,28.1,28.1c0,15.5-12.7,28.2-28.1,28.2c-12.2,0-22.8-7.9-26.6-19v46.9h17.5v-6h-11.6v-23.1
		c5.8,4.4,13,7.1,20.8,7.1c18.7,0,34.1-15.2,34.1-34.1C362.2,166.8,346.9,151.4,328.1,151.4z"/>
	<path class="st0" d="M399.5,151.4c-20.8,0-34.1,16.4-34.1,34.2c0,18.6,14.4,34,35.4,34c9.7,0,19.8-3.8,27.4-10.1l-3.8-4.4
		c-6.8,5.4-14.9,8.6-23.5,8.6c-17.5,0-29.5-12.7-29.5-28.1c0-14.6,11.2-28.2,28.2-28.2c18.2,0,28.1,15.1,25,28.9h-51.5
		c0.4,14.3,11.3,25.7,27.8,25.7c8.4,0,15.8-3,22.6-8.2l-3.7-4.7c-5.6,4.6-11.8,6.8-18.8,6.8c-10.6,0-18.1-5.6-20.8-13.7h48.6
		C436.3,174,423.9,151.4,399.5,151.4z"/>
	<path class="st0" d="M399.5,159.1c-16,0-26,12-26.5,25.6h50C425,172.3,415.8,159.1,399.5,159.1z M379.9,178.8
		c2.5-7.9,9.6-13.8,19.6-13.8c10.1,0,16.6,6.5,17.6,13.8H379.9z"/>
	<path class="st0" d="M428.6,204.8v6H440l27.6-47.2c-4.4-6.5-3.7-13.7,2.9-20l-4.2-4.2c-7.7,7.4-9.2,16.1-5.5,24.1l-24.1,41.3H428.6
		z"/>
	<path class="st0" d="M474.7,160.4c-3.4-4.1-3.2-7.2,1.1-11.4l-4.1-4.2c-6.6,6.4-6.8,13-1.7,19.3c5.8,7.2,22,17.5,22,31.7
		c0,9.2-6.8,17.9-18.4,17.9c-7.8,0-16.4-3.8-26.4-11.8l-6.2,10.6h-12.4v5.9h15.6l4.7-7.9c8.8,5.9,17.3,9.1,24.7,9.1
		c15.2,0,24.2-11.8,24.2-23.8C497.9,178.7,479.6,166.7,474.7,160.4z"/>
	<path class="st0" d="M490.3,195.8c0-13.2-15.7-23.3-21.6-30.7l-20.6,35.4c10.1,7.8,18.1,11.5,25.6,11.5
		C484.2,212,490.3,204.3,490.3,195.8z M469.8,174.9c6.6,6.5,14.6,13.3,14.6,20.9c0,5.5-3.8,10.2-10.8,10.2c-5,0-10.7-2.2-17.9-7.2
		L469.8,174.9z"/>
</g>
</svg>
